<svg width="332.341" height="45.301" viewBox="0 0 332.341 45.301" xmlns="http://www.w3.org/2000/svg"><g id="svgGroup" stroke-linecap="round" fill-rule="evenodd" font-size="9pt" stroke="#000" stroke-width="0" fill="#ffffff" style="stroke:#000;stroke-width:0;fill:#ffffff"><path d="M 0 44.58 L 0.24 43.68 L 1.8 43.26 A 10.818 10.818 0 0 0 2.392 43.117 Q 2.854 42.99 3.21 42.84 Q 3.78 42.6 4.14 42.09 A 3.858 3.858 0 0 0 4.428 41.607 Q 4.556 41.354 4.67 41.053 A 7.452 7.452 0 0 0 4.77 40.77 A 9.228 9.228 0 0 0 4.936 40.208 Q 5.115 39.529 5.28 38.58 L 10.5 8.82 A 19.061 19.061 0 0 0 10.627 8.083 Q 10.728 7.406 10.739 6.922 A 5.043 5.043 0 0 0 10.74 6.81 Q 10.74 6.255 10.625 5.848 A 2.075 2.075 0 0 0 10.53 5.58 Q 10.32 5.1 9.9 4.83 Q 9.595 4.634 9.131 4.485 A 5.914 5.914 0 0 0 8.76 4.38 L 7.2 3.9 L 7.38 3 L 23.52 3 L 27.72 27.18 L 27.96 27.18 L 41.22 3 L 57.3 3 L 57.12 3.9 L 55.5 4.38 A 20.612 20.612 0 0 0 55.007 4.527 Q 54.755 4.606 54.541 4.682 A 8.245 8.245 0 0 0 54.15 4.83 Q 53.64 5.04 53.34 5.49 A 2.869 2.869 0 0 0 53.128 5.874 Q 53.034 6.076 52.952 6.318 A 6.486 6.486 0 0 0 52.83 6.72 A 15.667 15.667 0 0 0 52.696 7.261 Q 52.555 7.869 52.402 8.701 A 52.183 52.183 0 0 0 52.38 8.82 L 47.1 38.76 Q 46.902 39.848 46.806 40.569 A 16.94 16.94 0 0 0 46.77 40.86 Q 46.68 41.64 46.86 42.09 A 1.32 1.32 0 0 0 47.476 42.773 A 1.655 1.655 0 0 0 47.49 42.78 Q 47.94 43.02 48.72 43.26 L 50.16 43.68 L 50.04 44.58 L 29.94 44.58 L 30.12 43.68 L 31.74 43.2 A 22.607 22.607 0 0 0 32.267 43.053 Q 32.791 42.9 33.156 42.76 A 6.685 6.685 0 0 0 33.18 42.75 Q 33.72 42.54 34.08 42.09 Q 34.36 41.74 34.567 41.191 A 5.604 5.604 0 0 0 34.68 40.86 Q 34.909 40.116 35.138 38.88 A 36.276 36.276 0 0 0 35.16 38.76 L 40.38 9.06 L 40.14 9.06 L 21.12 43.68 L 18.9 43.68 L 12.96 9.06 L 12.72 9.06 L 7.44 38.52 Q 7.2 39.84 7.17 40.68 A 5.131 5.131 0 0 0 7.167 40.851 Q 7.165 41.363 7.274 41.729 A 1.672 1.672 0 0 0 7.38 42 A 1.605 1.605 0 0 0 7.953 42.632 A 2.081 2.081 0 0 0 8.16 42.75 A 5.009 5.009 0 0 0 8.574 42.932 Q 8.792 43.018 9.048 43.1 A 11.841 11.841 0 0 0 9.6 43.26 L 11.4 43.68 L 11.22 44.58 L 0 44.58 Z M 161.82 44.58 L 162 43.68 L 163.74 43.2 A 22.607 22.607 0 0 0 164.267 43.053 Q 164.791 42.9 165.156 42.76 A 6.685 6.685 0 0 0 165.18 42.75 Q 165.72 42.54 166.05 42.09 A 2.782 2.782 0 0 0 166.307 41.657 Q 166.416 41.433 166.506 41.164 A 5.62 5.62 0 0 0 166.59 40.89 Q 166.8 40.14 167.04 38.76 L 172.32 8.82 Q 172.74 6.42 172.41 5.61 A 1.477 1.477 0 0 0 171.974 5.037 Q 171.56 4.691 170.822 4.453 A 6.465 6.465 0 0 0 170.58 4.38 L 169.02 3.9 L 169.2 3 L 189.48 3 Q 196.361 3 199.908 5.001 A 8.914 8.914 0 0 1 200.85 5.61 A 8.484 8.484 0 0 1 204.266 11.63 A 12.616 12.616 0 0 1 204.36 13.2 A 12.665 12.665 0 0 1 203.939 16.545 A 9.635 9.635 0 0 1 201.81 20.49 A 11.292 11.292 0 0 1 198.189 23.146 Q 196.557 23.922 194.52 24.36 L 194.52 24.54 Q 195.24 26.76 196.08 29.04 Q 196.92 31.32 197.85 33.51 A 96.145 96.145 0 0 0 199.129 36.394 A 81.544 81.544 0 0 0 199.71 37.62 A 76.776 76.776 0 0 0 200.611 39.422 Q 201.05 40.271 201.467 41.017 A 47.007 47.007 0 0 0 201.48 41.04 A 12.848 12.848 0 0 0 201.812 41.631 Q 202.164 42.219 202.489 42.588 A 3.873 3.873 0 0 0 202.5 42.6 A 2.245 2.245 0 0 0 202.996 43.01 Q 203.406 43.266 204 43.44 L 204.78 43.68 L 204.6 44.58 L 189.9 44.58 Q 187.74 39.96 186.21 35.37 Q 184.68 30.78 183.48 25.92 L 181.26 25.92 L 179.04 38.7 Q 178.842 39.838 178.746 40.588 A 18.505 18.505 0 0 0 178.71 40.89 Q 178.633 41.584 178.754 42.014 A 1.36 1.36 0 0 0 178.8 42.15 Q 178.98 42.6 179.43 42.81 Q 179.88 43.02 180.66 43.2 L 182.22 43.68 L 182.04 44.58 L 161.82 44.58 Z M 269.1 34.86 L 272.1 21.06 A 9.887 9.887 0 0 0 272.216 20.539 A 7.846 7.846 0 0 0 272.28 20.16 A 7.131 7.131 0 0 0 272.317 19.862 Q 272.331 19.716 272.337 19.588 A 3.443 3.443 0 0 0 272.34 19.44 Q 272.34 18.887 272.149 18.559 A 0.911 0.911 0 0 0 271.53 18.12 A 0.94 0.94 0 0 0 271.349 18.099 Q 270.557 18.08 269.023 19.185 A 15.449 15.449 0 0 0 268.92 19.26 L 268.02 19.86 L 267.36 19.02 A 34.696 34.696 0 0 1 269.538 16.831 Q 270.649 15.816 271.706 15.068 A 14.884 14.884 0 0 1 273.42 14.01 Q 275.563 12.893 277.393 12.625 A 7.767 7.767 0 0 1 278.52 12.54 Q 283.2 12.54 283.2 16.86 Q 283.2 18.24 282.93 19.5 Q 282.723 20.465 282.393 22.028 A 1991.296 1991.296 0 0 0 282.18 23.04 L 279.9 33.66 A 34.705 34.705 0 0 0 279.69 34.737 Q 279.24 37.27 279.54 38.22 Q 279.9 39.36 280.92 39.36 A 2.592 2.592 0 0 0 281.856 39.17 Q 282.605 38.88 283.46 38.148 A 10.012 10.012 0 0 0 283.65 37.98 Q 284.965 36.794 286.302 35.032 A 31.183 31.183 0 0 0 286.74 34.44 L 291.24 13.32 L 301.74 13.32 L 297 37.32 A 16.044 16.044 0 0 0 296.906 37.77 Q 296.867 37.975 296.838 38.16 A 9.034 9.034 0 0 0 296.82 38.28 A 6.17 6.17 0 0 0 296.771 38.734 A 4.819 4.819 0 0 0 296.76 39.06 Q 296.76 39.543 296.915 39.831 A 0.763 0.763 0 0 0 297.45 40.23 Q 298.14 40.38 299.64 39.48 L 301.02 38.7 L 301.62 39.48 A 24.128 24.128 0 0 1 298.852 41.974 A 18.175 18.175 0 0 1 295.89 43.83 A 15.723 15.723 0 0 1 293.443 44.809 Q 291.806 45.3 290.28 45.3 A 6.705 6.705 0 0 1 289.067 45.198 Q 287.843 44.972 287.1 44.25 A 3.455 3.455 0 0 1 286.142 42.499 A 5.197 5.197 0 0 1 286.02 41.34 A 8.407 8.407 0 0 1 286.077 40.39 Q 286.151 39.743 286.32 39 A 88.367 88.367 0 0 1 286.537 38.069 Q 286.623 37.706 286.704 37.384 A 42.347 42.347 0 0 1 286.86 36.78 L 286.62 36.78 Q 284.078 40.427 281.308 42.649 A 19.599 19.599 0 0 1 280.83 43.02 A 11.203 11.203 0 0 1 276.833 44.976 A 10.658 10.658 0 0 1 274.2 45.3 Q 271.68 45.3 270.12 43.89 A 4.449 4.449 0 0 1 268.859 41.858 Q 268.635 41.135 268.579 40.26 A 9.396 9.396 0 0 1 268.56 39.66 Q 268.56 38.925 268.648 37.962 A 31.284 31.284 0 0 1 268.71 37.35 A 28.896 28.896 0 0 1 268.907 35.898 A 22.938 22.938 0 0 1 269.1 34.86 Z M 87.42 19.14 L 86.52 19.68 L 85.8 18.84 A 25.007 25.007 0 0 1 88.739 15.97 A 20.241 20.241 0 0 1 91.17 14.25 A 14.71 14.71 0 0 1 93.076 13.277 Q 94.154 12.828 95.16 12.653 A 7.333 7.333 0 0 1 96.42 12.54 Q 98.7 12.54 99.9 13.86 Q 100.954 15.02 101.314 17.754 A 18.974 18.974 0 0 1 101.4 18.54 Q 101.673 22.086 101.673 26.325 A 135.083 135.083 0 0 1 101.67 27.18 Q 101.64 31.92 101.4 37.56 L 101.7 37.56 Q 107.16 31.26 109.62 27.42 Q 111.476 24.522 111.932 22.65 A 4.73 4.73 0 0 0 112.08 21.54 A 2.435 2.435 0 0 0 112.004 20.916 A 1.773 1.773 0 0 0 111.54 20.1 A 15.787 15.787 0 0 0 110.885 19.483 A 20.017 20.017 0 0 0 110.31 18.99 Q 109.62 18.42 109.08 17.7 Q 108.54 16.98 108.54 15.78 Q 108.54 14.46 109.44 13.47 A 2.941 2.941 0 0 1 111.062 12.568 A 4.389 4.389 0 0 1 111.96 12.48 A 4.784 4.784 0 0 1 113.391 12.685 A 3.893 3.893 0 0 1 114.93 13.59 Q 115.801 14.416 116.023 16.023 A 8.74 8.74 0 0 1 116.1 17.22 A 9.474 9.474 0 0 1 115.899 19.103 Q 115.721 19.978 115.387 20.93 A 18.013 18.013 0 0 1 115.05 21.81 Q 114.256 23.738 112.777 26.077 A 48.165 48.165 0 0 1 111.75 27.63 A 75.534 75.534 0 0 1 109.885 30.214 Q 108.822 31.627 107.566 33.183 A 146.426 146.426 0 0 1 105.99 35.1 A 188.003 188.003 0 0 1 102.649 38.982 Q 100.328 41.61 97.56 44.58 L 91.32 44.58 A 7859.527 7859.527 0 0 1 91.279 39.038 Q 91.264 36.857 91.252 34.89 A 4107.683 4107.683 0 0 1 91.23 31.17 Q 91.203 26.152 90.96 22.742 A 65.197 65.197 0 0 0 90.9 21.96 A 27.798 27.798 0 0 0 90.802 21.07 Q 90.746 20.636 90.681 20.261 A 13.223 13.223 0 0 0 90.6 19.83 A 4.505 4.505 0 0 0 90.485 19.381 Q 90.342 18.932 90.13 18.677 A 1.141 1.141 0 0 0 90.06 18.6 A 0.912 0.912 0 0 0 89.471 18.335 Q 89.339 18.323 89.19 18.341 A 1.803 1.803 0 0 0 89.07 18.36 Q 88.44 18.48 87.42 19.14 Z M 237.96 19.14 L 237.06 19.68 L 236.34 18.84 A 25.007 25.007 0 0 1 239.279 15.97 A 20.241 20.241 0 0 1 241.71 14.25 A 14.71 14.71 0 0 1 243.616 13.277 Q 244.694 12.828 245.7 12.653 A 7.333 7.333 0 0 1 246.96 12.54 Q 249.24 12.54 250.44 13.86 Q 251.494 15.02 251.854 17.754 A 18.974 18.974 0 0 1 251.94 18.54 Q 252.213 22.086 252.213 26.325 A 135.083 135.083 0 0 1 252.21 27.18 Q 252.18 31.92 251.94 37.56 L 252.24 37.56 Q 257.7 31.26 260.16 27.42 Q 262.016 24.522 262.472 22.65 A 4.73 4.73 0 0 0 262.62 21.54 A 2.435 2.435 0 0 0 262.544 20.916 A 1.773 1.773 0 0 0 262.08 20.1 A 15.787 15.787 0 0 0 261.425 19.483 A 20.017 20.017 0 0 0 260.85 18.99 Q 260.16 18.42 259.62 17.7 Q 259.08 16.98 259.08 15.78 Q 259.08 14.46 259.98 13.47 A 2.941 2.941 0 0 1 261.602 12.568 A 4.389 4.389 0 0 1 262.5 12.48 A 4.784 4.784 0 0 1 263.931 12.685 A 3.893 3.893 0 0 1 265.47 13.59 Q 266.341 14.416 266.563 16.023 A 8.74 8.74 0 0 1 266.64 17.22 A 9.474 9.474 0 0 1 266.439 19.103 Q 266.261 19.978 265.927 20.93 A 18.013 18.013 0 0 1 265.59 21.81 Q 264.796 23.738 263.317 26.077 A 48.165 48.165 0 0 1 262.29 27.63 A 75.534 75.534 0 0 1 260.425 30.214 Q 259.362 31.627 258.106 33.183 A 146.426 146.426 0 0 1 256.53 35.1 A 188.003 188.003 0 0 1 253.189 38.982 Q 250.867 41.61 248.1 44.58 L 241.86 44.58 A 7859.527 7859.527 0 0 1 241.819 39.038 Q 241.804 36.857 241.792 34.89 A 4107.683 4107.683 0 0 1 241.77 31.17 Q 241.743 26.152 241.5 22.742 A 65.197 65.197 0 0 0 241.44 21.96 A 27.798 27.798 0 0 0 241.342 21.07 Q 241.286 20.636 241.221 20.261 A 13.223 13.223 0 0 0 241.14 19.83 A 4.505 4.505 0 0 0 241.025 19.381 Q 240.882 18.932 240.67 18.677 A 1.141 1.141 0 0 0 240.6 18.6 A 0.912 0.912 0 0 0 240.011 18.335 Q 239.879 18.323 239.73 18.341 A 1.803 1.803 0 0 0 239.61 18.36 Q 238.98 18.48 237.96 19.14 Z M 159.72 36.6 L 160.44 37.32 A 17.339 17.339 0 0 1 159.285 38.882 A 22.388 22.388 0 0 1 158.19 40.11 A 16.262 16.262 0 0 1 155.753 42.186 A 18.735 18.735 0 0 1 155.04 42.66 A 16.899 16.899 0 0 1 152.458 43.989 A 20.691 20.691 0 0 1 150.93 44.55 A 15.36 15.36 0 0 1 147.582 45.223 A 18.827 18.827 0 0 1 145.86 45.3 Q 142.025 45.3 139.536 43.866 A 8.07 8.07 0 0 1 137.61 42.33 Q 134.88 39.36 134.88 34.62 Q 134.88 30.06 136.65 26.01 A 24.154 24.154 0 0 1 140.555 19.776 A 22.649 22.649 0 0 1 141.3 18.96 Q 144.18 15.96 147.78 14.22 A 17.615 17.615 0 0 1 152.055 12.767 A 15.148 15.148 0 0 1 154.98 12.48 A 18.296 18.296 0 0 1 157.599 12.656 Q 159.011 12.861 160.162 13.304 A 8.243 8.243 0 0 1 162 14.28 Q 164.52 16.08 164.52 18.96 Q 164.52 23.22 159.81 25.56 A 28.38 28.38 0 0 1 156.436 26.947 Q 152.839 28.185 147.702 29.151 A 105.894 105.894 0 0 1 145.98 29.46 Q 145.8 31.44 145.8 33.48 Q 145.8 37.44 147.12 39.09 A 4.296 4.296 0 0 0 150.047 40.692 A 6.242 6.242 0 0 0 150.84 40.74 Q 153.24 40.74 155.31 39.72 Q 157.011 38.882 158.894 37.315 A 29.302 29.302 0 0 0 159.72 36.6 Z M 230.1 36.6 L 230.82 37.32 A 17.339 17.339 0 0 1 229.665 38.882 A 22.388 22.388 0 0 1 228.57 40.11 A 16.262 16.262 0 0 1 226.133 42.186 A 18.735 18.735 0 0 1 225.42 42.66 A 16.899 16.899 0 0 1 222.838 43.989 A 20.691 20.691 0 0 1 221.31 44.55 A 15.36 15.36 0 0 1 217.962 45.223 A 18.827 18.827 0 0 1 216.24 45.3 Q 212.405 45.3 209.916 43.866 A 8.07 8.07 0 0 1 207.99 42.33 Q 205.26 39.36 205.26 34.62 Q 205.26 30.06 207.03 26.01 A 24.154 24.154 0 0 1 210.935 19.776 A 22.649 22.649 0 0 1 211.68 18.96 Q 214.56 15.96 218.16 14.22 A 17.615 17.615 0 0 1 222.435 12.767 A 15.148 15.148 0 0 1 225.36 12.48 A 18.296 18.296 0 0 1 227.979 12.656 Q 229.391 12.861 230.542 13.304 A 8.243 8.243 0 0 1 232.38 14.28 Q 234.9 16.08 234.9 18.96 Q 234.9 23.22 230.19 25.56 A 28.38 28.38 0 0 1 226.816 26.947 Q 223.219 28.185 218.082 29.151 A 105.894 105.894 0 0 1 216.36 29.46 Q 216.18 31.44 216.18 33.48 Q 216.18 37.44 217.5 39.09 A 4.296 4.296 0 0 0 220.427 40.692 A 6.242 6.242 0 0 0 221.22 40.74 Q 223.62 40.74 225.69 39.72 Q 227.391 38.882 229.274 37.315 A 29.302 29.302 0 0 0 230.1 36.6 Z M 327.54 36.6 L 328.26 37.32 A 17.339 17.339 0 0 1 327.105 38.882 A 22.388 22.388 0 0 1 326.01 40.11 A 16.262 16.262 0 0 1 323.573 42.186 A 18.735 18.735 0 0 1 322.86 42.66 A 16.899 16.899 0 0 1 320.278 43.989 A 20.691 20.691 0 0 1 318.75 44.55 A 15.36 15.36 0 0 1 315.402 45.223 A 18.827 18.827 0 0 1 313.68 45.3 Q 309.845 45.3 307.356 43.866 A 8.07 8.07 0 0 1 305.43 42.33 Q 302.7 39.36 302.7 34.62 Q 302.7 30.06 304.47 26.01 A 24.154 24.154 0 0 1 308.375 19.776 A 22.649 22.649 0 0 1 309.12 18.96 Q 312 15.96 315.6 14.22 A 17.615 17.615 0 0 1 319.875 12.767 A 15.148 15.148 0 0 1 322.8 12.48 A 18.296 18.296 0 0 1 325.419 12.656 Q 326.831 12.861 327.982 13.304 A 8.243 8.243 0 0 1 329.82 14.28 Q 332.34 16.08 332.34 18.96 Q 332.34 23.22 327.63 25.56 A 28.38 28.38 0 0 1 324.256 26.947 Q 320.659 28.185 315.522 29.151 A 105.894 105.894 0 0 1 313.8 29.46 Q 313.62 31.44 313.62 33.48 Q 313.62 37.44 314.94 39.09 A 4.296 4.296 0 0 0 317.867 40.692 A 6.242 6.242 0 0 0 318.66 40.74 Q 321.06 40.74 323.13 39.72 Q 324.831 38.882 326.714 37.315 A 29.302 29.302 0 0 0 327.54 36.6 Z M 66.78 45.3 Q 63.54 45.3 61.02 44.22 A 12.881 12.881 0 0 1 57.8 42.265 A 11.773 11.773 0 0 1 56.76 41.28 Q 55.02 39.42 54.12 37.02 A 14.404 14.404 0 0 1 53.22 31.923 A 8.69 8.69 0 0 1 53.22 31.92 A 22.094 22.094 0 0 1 53.677 27.338 A 17.939 17.939 0 0 1 54.84 23.73 A 20.15 20.15 0 0 1 57.357 19.502 A 17.597 17.597 0 0 1 59.07 17.61 Q 61.68 15.12 65.01 13.8 A 18.344 18.344 0 0 1 70.441 12.527 A 17.103 17.103 0 0 1 71.7 12.48 A 15.133 15.133 0 0 1 75.02 12.832 A 12.564 12.564 0 0 1 77.34 13.59 A 13.869 13.869 0 0 1 80.575 15.558 A 12.549 12.549 0 0 1 81.63 16.53 Q 83.4 18.36 84.33 20.82 Q 85.26 23.28 85.26 25.98 Q 85.26 30.6 83.64 34.2 A 19.852 19.852 0 0 1 81.123 38.39 A 17.372 17.372 0 0 1 79.41 40.26 Q 76.8 42.72 73.5 44.01 Q 70.2 45.3 66.78 45.3 Z M 118.44 35.04 L 121.74 21.12 Q 121.888 20.527 121.955 20.137 A 5.691 5.691 0 0 0 121.98 19.98 A 7.131 7.131 0 0 0 122.017 19.682 Q 122.031 19.536 122.037 19.408 A 3.443 3.443 0 0 0 122.04 19.26 A 2.28 2.28 0 0 0 122.007 18.851 Q 121.873 18.12 121.2 18.12 Q 120.36 18.12 118.38 19.32 L 117.54 19.92 L 116.88 19.08 Q 120.12 15.66 123.12 14.1 Q 125.217 13.01 126.963 12.682 A 7.783 7.783 0 0 1 128.4 12.54 A 7.275 7.275 0 0 1 129.717 12.652 Q 130.443 12.786 131.013 13.081 A 3.489 3.489 0 0 1 131.85 13.68 A 3.734 3.734 0 0 1 132.869 15.51 Q 133.015 16.108 133.02 16.815 A 7.06 7.06 0 0 1 133.02 16.86 A 12.916 12.916 0 0 1 132.855 18.884 A 14.84 14.84 0 0 1 132.75 19.47 Q 132.543 20.504 132.178 22.083 A 195.384 195.384 0 0 1 131.94 23.1 L 128.46 37.32 A 8.712 8.712 0 0 0 128.314 38.023 A 7.662 7.662 0 0 0 128.28 38.25 A 6.73 6.73 0 0 0 128.222 38.962 A 6.001 6.001 0 0 0 128.22 39.12 A 2.273 2.273 0 0 0 128.256 39.546 Q 128.399 40.291 129.105 40.291 A 1.39 1.39 0 0 0 129.15 40.29 Q 129.993 40.263 131.206 39.57 A 10.624 10.624 0 0 0 131.46 39.42 L 132.72 38.64 L 133.32 39.42 Q 130.92 42.06 127.86 43.68 A 15.766 15.766 0 0 1 125.433 44.729 Q 123.703 45.3 122.1 45.3 A 7.802 7.802 0 0 1 120.823 45.203 Q 120.146 45.09 119.611 44.847 A 3.244 3.244 0 0 1 118.53 44.07 Q 117.42 42.84 117.42 40.92 A 11.214 11.214 0 0 1 117.496 39.648 A 14.532 14.532 0 0 1 117.66 38.58 A 42.445 42.445 0 0 1 117.799 37.887 Q 117.961 37.105 118.203 36.053 A 163.852 163.852 0 0 1 118.44 35.04 Z M 69.064 42.551 A 8.114 8.114 0 0 0 69.84 41.551 A 17.715 17.715 0 0 0 71.077 39.349 Q 71.825 37.779 72.45 35.82 A 45.091 45.091 0 0 0 73.599 31.434 A 56.574 56.574 0 0 0 74.19 28.14 Q 74.82 23.94 74.82 20.04 A 24.18 24.18 0 0 0 74.771 18.446 Q 74.671 16.939 74.366 15.968 A 4.606 4.606 0 0 0 74.13 15.36 Q 73.498 14.041 72.134 13.93 A 3.158 3.158 0 0 0 71.88 13.92 A 2.62 2.62 0 0 0 70.575 14.281 Q 70.209 14.488 69.854 14.814 A 5.189 5.189 0 0 0 69.69 14.97 A 8.622 8.622 0 0 0 68.8 16.027 Q 68.246 16.795 67.74 17.79 Q 66.84 19.56 66.06 21.93 A 44.684 44.684 0 0 0 64.879 26.262 A 49.438 49.438 0 0 0 64.74 26.91 Q 64.2 29.52 63.9 32.22 A 48.298 48.298 0 0 0 63.611 36.489 A 43.201 43.201 0 0 0 63.6 37.44 A 24.943 24.943 0 0 0 63.651 39.094 Q 63.791 41.199 64.32 42.3 A 2.935 2.935 0 0 0 64.889 43.123 Q 65.492 43.721 66.41 43.791 A 3.282 3.282 0 0 0 66.66 43.8 Q 67.912 43.8 69.064 42.551 Z M 184.98 5.16 L 181.62 24.06 Q 181.869 24.16 182.347 24.198 A 6.594 6.594 0 0 0 182.55 24.21 A 26.422 26.422 0 0 0 183.373 24.236 A 32.185 32.185 0 0 0 183.9 24.24 A 8.613 8.613 0 0 0 186.855 23.755 A 7.379 7.379 0 0 0 190.35 21.06 A 10.026 10.026 0 0 0 191.712 18.325 Q 192.66 15.487 192.66 11.22 A 15.187 15.187 0 0 0 192.572 9.528 Q 192.368 7.713 191.689 6.604 A 4.209 4.209 0 0 0 191.55 6.39 Q 190.582 5.003 188.403 4.826 A 8.194 8.194 0 0 0 187.74 4.8 Q 187.02 4.8 186.3 4.89 A 8.915 8.915 0 0 0 185.528 5.02 A 7.148 7.148 0 0 0 184.98 5.16 Z M 153.66 13.98 A 2.362 2.362 0 0 0 152.68 14.206 Q 152.059 14.488 151.41 15.12 Q 150.24 16.26 149.22 18.18 A 22.071 22.071 0 0 0 148.267 20.237 Q 147.801 21.385 147.39 22.71 A 34.931 34.931 0 0 0 146.333 27.158 A 39.726 39.726 0 0 0 146.16 28.26 A 32.979 32.979 0 0 0 148.575 27.464 A 25.75 25.75 0 0 0 150.27 26.76 A 10.322 10.322 0 0 0 151.925 25.817 A 7.951 7.951 0 0 0 153.24 24.66 Q 154.38 23.4 154.98 21.36 A 14.481 14.481 0 0 0 155.559 18.085 A 13.198 13.198 0 0 0 155.58 17.34 Q 155.58 15.48 155.1 14.73 A 1.544 1.544 0 0 0 153.983 14.003 A 2.166 2.166 0 0 0 153.66 13.98 Z M 224.04 13.98 A 2.362 2.362 0 0 0 223.06 14.206 Q 222.439 14.488 221.79 15.12 Q 220.62 16.26 219.6 18.18 A 22.071 22.071 0 0 0 218.647 20.237 Q 218.181 21.385 217.77 22.71 A 34.931 34.931 0 0 0 216.713 27.158 A 39.726 39.726 0 0 0 216.54 28.26 A 32.979 32.979 0 0 0 218.955 27.464 A 25.75 25.75 0 0 0 220.65 26.76 A 10.322 10.322 0 0 0 222.305 25.817 A 7.951 7.951 0 0 0 223.62 24.66 Q 224.76 23.4 225.36 21.36 A 14.481 14.481 0 0 0 225.939 18.085 A 13.198 13.198 0 0 0 225.96 17.34 Q 225.96 15.48 225.48 14.73 A 1.544 1.544 0 0 0 224.363 14.003 A 2.166 2.166 0 0 0 224.04 13.98 Z M 321.48 13.98 A 2.362 2.362 0 0 0 320.5 14.206 Q 319.879 14.488 319.23 15.12 Q 318.06 16.26 317.04 18.18 A 22.071 22.071 0 0 0 316.087 20.237 Q 315.621 21.385 315.21 22.71 A 34.931 34.931 0 0 0 314.153 27.158 A 39.726 39.726 0 0 0 313.98 28.26 A 32.979 32.979 0 0 0 316.395 27.464 A 25.75 25.75 0 0 0 318.09 26.76 A 10.322 10.322 0 0 0 319.745 25.817 A 7.951 7.951 0 0 0 321.06 24.66 Q 322.2 23.4 322.8 21.36 A 14.481 14.481 0 0 0 323.379 18.085 A 13.198 13.198 0 0 0 323.4 17.34 Q 323.4 15.48 322.92 14.73 A 1.544 1.544 0 0 0 321.803 14.003 A 2.166 2.166 0 0 0 321.48 13.98 Z M 129.66 10.02 Q 127.38 10.02 125.79 8.61 A 4.587 4.587 0 0 1 124.206 5.259 A 5.992 5.992 0 0 1 124.2 4.98 A 5.126 5.126 0 0 1 124.493 3.213 A 4.463 4.463 0 0 1 125.76 1.38 A 5.466 5.466 0 0 1 129.076 0.019 A 7.139 7.139 0 0 1 129.6 0 A 6.247 6.247 0 0 1 131.677 0.335 A 5.474 5.474 0 0 1 133.47 1.38 A 4.484 4.484 0 0 1 135.05 4.639 A 5.937 5.937 0 0 1 135.06 4.98 A 5.142 5.142 0 0 1 134.742 6.819 A 4.591 4.591 0 0 1 133.5 8.61 A 5.425 5.425 0 0 1 130.081 10.008 A 7.061 7.061 0 0 1 129.66 10.02 Z" vector-effect="non-scaling-stroke"/></g></svg>